# xmcd CD database file
#
# Track frame offsets:
#	150
#	14687
#	31320
#	44612
#	58362
#	72030
#	85137
#	94312
#	105375
#	120355
#	134462
#	157492
#	173462
#	186750
#	201362
#	216067
#
# Disc length: 3080 seconds
#
# Revision: 2
# Processed by: cddbd v1.4PL0 Copyright (c) Steve Scherf et al.
# Submitted via: CDex 1.50Beta3
#
DISCID=e60c0610
DTITLE=JazzVocal - The Best Of Jazz Vocal
DYEAR=1900
DGENRE=Jazz
TTITLE0=Tea For Two/Doris Day
TTITLE1=Secret Love/Doris Day
TTITLE2=Fly Me To The Moon/Patti Page
TTITLE3=All The Way/Patti Page
TTITLE4=All Of Me/Billie Holiday
TTITLE5=St. Louis Blues/Billie Holiday
TTITLE6=Night And Day/Carol Sloane
TTITLE7=Icould Have Danced All Night/Roesmary Clooney
TTITLE8=Stardust/Jo Stafford
TTITLE9=You Belong To Me/Jo Stafford
TTITLE10=You And The Night And The Music/Bobbe Norris
TTITLE11=Tenderly/Rosemary Clooney
TTITLE12=Georgia On My Mind/Anita O'Day
TTITLE13=On The Sunny Side Of The Street/Peggy Lee
TTITLE14=It Might As Well Be Spring/Sarah Vaughan
TTITLE15=Lullaby Of Birdland/Carmen Lundy
EXTD=
EXTT0=
EXTT1=
EXTT2=
EXTT3=
EXTT4=
EXTT5=
EXTT6=
EXTT7=
EXTT8=
EXTT9=
EXTT10=
EXTT11=
EXTT12=
EXTT13=
EXTT14=
EXTT15=
PLAYORDER=
